<svg width="17" height="23" viewBox="0 0 17 23" fill="none" xmlns="http://www.w3.org/2000/svg">
<path d="M1.99524 21.7091C2.02098 22.3239 2.52688 22.809 3.1421 22.809H13.8581C14.4733 22.809 14.9792 22.3239 15.0049 21.7091L15.7702 5.5542H1.22998L1.99524 21.7091ZM10.9242 9.56679C10.9242 9.30937 11.1329 9.1006 11.3904 9.1006H12.1361C12.3935 9.1006 12.6024 9.30932 12.6024 9.56679V18.7965C12.6024 19.0539 12.3937 19.2626 12.1361 19.2626H11.3904C11.133 19.2626 10.9242 19.054 10.9242 18.7965V9.56679ZM7.66103 9.56679C7.66103 9.30937 7.86976 9.1006 8.12723 9.1006H8.87295C9.1303 9.1006 9.33914 9.30932 9.33914 9.56679V18.7965C9.33914 19.0539 9.13047 19.2626 8.87295 19.2626H8.12723C7.86981 19.2626 7.66103 19.054 7.66103 18.7965V9.56679ZM4.39779 9.56679C4.39779 9.30937 4.60652 9.1006 4.86399 9.1006H5.60976C5.86718 9.1006 6.07595 9.30932 6.07595 9.56679V18.7965C6.07595 19.0539 5.86723 19.2626 5.60976 19.2626H4.86399C4.60657 19.2626 4.39779 19.054 4.39779 18.7965V9.56679Z" fill="#DADADA"/>
<path d="M16.2797 1.175H11.336V0.240383C11.336 0.107656 11.2284 0 11.0957 0H5.90433C5.7716 0 5.664 0.107656 5.664 0.240383V1.17495H0.720313C0.322466 1.17495 0 1.49747 0 1.89532V4.15827H17V1.89537C17 1.49752 16.6775 1.175 16.2797 1.175Z" fill="#DADADA"/>
</svg>
